<?xml version="1.0" encoding="UTF-8"?>
<svg width="760px" height="120px" viewBox="0 0 760 120" version="1.1" xmlns="http://www.w3.org/2000/svg" xmlns:xlink="http://www.w3.org/1999/xlink">
    <!-- Generator: Sketch 60.1 (88133) - https://sketch.com -->
    <title>dingdong</title>
    <desc>Created with Sketch.</desc>
    <g id="dingdong" stroke="none" stroke-width="1" fill="none" fill-rule="evenodd">
        <g id="logo" transform="translate(3.000000, 3.000000)">
            <path d="M56.259939,-7.10542736e-15 L56.258939,7.856 L56.8108282,7.92842047 C59.9452099,8.36331664 63.0143182,9.18174551 65.9490622,10.3652829 L66.6238942,10.6448797 L67.2937672,10.9373886 L67.884939,11.2022195 L67.884939,22.4725019 L66.3777764,21.5856004 C61.8336523,18.9115755 56.6572678,17.5010107 51.384939,17.5 C34.9820819,17.5 21.6538818,30.6641715 21.3889581,47.0039424 L21.384939,47.5000487 L21.3833535,67.1306767 C21.3427744,68.2721855 20.872031,69.3542236 20.0996305,70.1325583 L19.9295457,70.2946068 L9.75893897,80.465 L9.75893897,85.25 L93.008939,85.25 L93.008939,80.464 L82.8774696,70.3298888 C82.0178105,69.5540887 81.4929151,68.4830916 81.3986793,67.3591999 L81.3851125,67.1176447 L81.384939,54.25 L91.134939,54.25 L91.133939,64.909 L101.267408,75.0451112 C102.127067,75.8209113 102.651963,76.8919084 102.746199,78.0158001 L102.759765,78.2573553 L102.757758,90.0589891 C102.846074,91.3939694 102.354164,92.7021508 101.408127,93.6481879 C100.521217,94.5350976 99.3160164,95.0228721 98.1232323,95.0094066 L97.884939,95 L71.735939,95 L71.7339688,95.0377536 C71.1936411,105.808336 62.2897158,114.375 51.384939,114.375 C40.5974178,114.375 31.7679505,105.991574 31.0562322,95.3844194 L31.032939,95 L4.95094985,94.9978189 C3.78284208,95.0750953 2.63525221,94.7081363 1.73283552,93.9814183 L1.54329504,93.8202172 L1.36175109,93.6481879 C0.474841373,92.7612782 -0.0129331275,91.5560775 0.000260849759,90.3632933 L0.00993896611,90.125 L0.010299278,78.526842 C-0.0230029477,77.2866138 0.454117465,76.090962 1.29281562,75.2448621 L1.46533218,75.0803932 L11.633939,64.91 L11.6349738,47.4916569 C11.7999259,27.721169 26.2483111,11.0837088 45.5998973,8.00175661 L46.1878002,7.91252408 L46.508939,7.868 L46.509939,-7.10542736e-15 L56.259939,-7.10542736e-15 Z M62.384939,95.8125 L40.384939,95.8125 L40.384939,96.6727151 L40.3881222,96.936581 C40.5300368,102.812603 45.3991469,105.8125 51.384939,105.8125 C57.4600712,105.8125 62.384939,102.670646 62.384939,96.6727151 L62.384939,96.6727151 L62.384939,95.8125 Z" id="Fill" fill="#161616" fill-rule="nonzero"></path>
            <circle id="Oval" fill="#FF0000" cx="90.134939" cy="28.125" r="15.5"></circle>
        </g>
        <path d="M172.372,103.04 C180.721333,103.04 187.417333,101.841333 192.46,99.444 C197.502667,97.0466667 201.202,93.3886667 203.558,88.47 C205.914,83.5513333 207.174667,77.1653333 207.34,69.312 C207.422667,66.832 207.464,63.5666667 207.464,59.516 C207.464,55.4653333 207.422667,52.2413333 207.34,49.844 C207.174667,38.6013333 204.322667,30.19 198.784,24.61 C193.245333,19.03 184.234667,16.24 171.752,16.24 L171.752,16.24 L143.728,16.24 C142.901333,16.24 142.24,16.5086667 141.744,17.046 C141.248,17.5833333 141,18.3066667 141,19.216 L141,19.216 L141,100.188 C141,101.014667 141.248,101.696667 141.744,102.234 C142.24,102.771333 142.901333,103.04 143.728,103.04 L143.728,103.04 L172.372,103.04 Z M171.752,92.748 L152.656,92.748 L152.656,26.408 L171.132,26.408 C179.729333,26.408 185.908667,28.33 189.67,32.174 C193.431333,36.018 195.394667,42.0733333 195.56,50.34 C195.725333,55.1346667 195.808,58.1933333 195.808,59.516 C195.808,60.756 195.725333,63.856 195.56,68.816 C195.394667,74.6853333 194.547333,79.3353333 193.018,82.766 C191.488667,86.1966667 189.008667,88.718 185.578,90.33 C182.147333,91.942 177.538667,92.748 171.752,92.748 L171.752,92.748 Z M235.24,103.04 C236.066667,103.04 236.748667,102.771333 237.286,102.234 C237.823333,101.696667 238.092,101.014667 238.092,100.188 L238.092,100.188 L238.092,19.092 C238.092,18.1826667 237.844,17.48 237.348,16.984 C236.852,16.488 236.149333,16.24 235.24,16.24 L235.24,16.24 L229.04,16.24 C228.213333,16.24 227.552,16.5086667 227.056,17.046 C226.56,17.5833333 226.312,18.2653333 226.312,19.092 L226.312,19.092 L226.312,100.188 C226.312,101.014667 226.56,101.696667 227.056,102.234 C227.552,102.771333 228.213333,103.04 229.04,103.04 L229.04,103.04 L235.24,103.04 Z M268.348,103.04 C269.174667,103.04 269.856667,102.771333 270.394,102.234 C270.931333,101.696667 271.2,101.014667 271.2,100.188 L271.2,100.188 L271.2,37.94 L312.74,101.304 C313.318667,102.461333 314.310667,103.04 315.716,103.04 L315.716,103.04 L321.296,103.04 C322.122667,103.04 322.804667,102.750667 323.342,102.172 C323.879333,101.593333 324.148,100.890667 324.148,100.064 L324.148,100.064 L324.148,19.216 C324.148,18.3066667 323.879333,17.5833333 323.342,17.046 C322.804667,16.5086667 322.081333,16.24 321.172,16.24 L321.172,16.24 L315.592,16.24 C314.765333,16.24 314.083333,16.5086667 313.546,17.046 C313.008667,17.5833333 312.74,18.3066667 312.74,19.216 L312.74,19.216 L312.74,81.96 L271.2,17.976 C270.786667,17.48 270.373333,17.0666667 269.96,16.736 C269.546667,16.4053333 268.926667,16.24 268.1,16.24 L268.1,16.24 L262.644,16.24 C261.817333,16.24 261.156,16.5086667 260.66,17.046 C260.164,17.5833333 259.916,18.3066667 259.916,19.216 L259.916,19.216 L259.916,100.188 C259.916,101.014667 260.164,101.696667 260.66,102.234 C261.156,102.771333 261.817333,103.04 262.644,103.04 L262.644,103.04 L268.348,103.04 Z M377.22,104.28 C384.412,104.28 390.653333,102.895333 395.944,100.126 C401.234667,97.3566667 405.264667,93.43 408.034,88.346 C410.803333,83.262 412.188,77.372 412.188,70.676 L412.188,70.676 L412.188,58.896 C412.188,57.9866667 411.919333,57.2633333 411.382,56.726 C410.844667,56.1886667 410.121333,55.92 409.212,55.92 L409.212,55.92 L381.436,55.92 C380.609333,55.92 379.927333,56.2093333 379.39,56.788 C378.852667,57.3666667 378.584,58.0693333 378.584,58.896 L378.584,58.896 L378.584,62.616 C378.584,63.4426667 378.852667,64.1453333 379.39,64.724 C379.927333,65.3026667 380.609333,65.592 381.436,65.592 L381.436,65.592 L400.408,65.592 L400.408,70.924 C400.408,78.612 398.3,84.378 394.084,88.222 C389.868,92.066 384.246667,93.988 377.22,93.988 C370.276,93.988 364.82,92.0866667 360.852,88.284 C356.884,84.4813333 354.776,78.5706667 354.528,70.552 C354.451947,68.2704 354.410878,64.9742485 354.404794,60.6635456 L354.40468,58.4348697 C354.41035,54.018043 354.451457,50.6997531 354.528,48.48 C354.776,40.544 356.884,34.6746667 360.852,30.872 C364.82,27.0693333 370.276,25.168 377.22,25.168 C383.254667,25.168 388.049333,26.4906667 391.604,29.136 C395.158667,31.7813333 397.597333,35.0466667 398.92,38.932 C399.250667,39.8413333 399.602,40.4613333 399.974,40.792 C400.346,41.1226667 400.904,41.288 401.648,41.288 L401.648,41.288 L408.592,41.288 C409.253333,41.288 409.852667,41.0606667 410.39,40.606 C410.927333,40.1513333 411.196,39.5933333 411.196,38.932 L411.196,38.932 L411.196,38.684 C411.030667,35.5426667 409.666667,32.1326667 407.104,28.454 C404.541333,24.7753333 400.738667,21.6133333 395.696,18.968 C390.653333,16.3226667 384.494667,15 377.22,15 C366.473333,15 358.103333,17.9553333 352.11,23.866 C346.116667,29.7766667 342.954667,37.7746667 342.624,47.86 C342.547034,50.092 342.505898,53.6138359 342.50059,58.4255077 L342.50059,60.6282041 C342.506116,65.3545442 342.547238,68.8691429 342.624,71.172 C343.037333,81.34 346.22,89.4 352.172,95.352 C358.124,101.304 366.473333,104.28 377.22,104.28 Z M461.416,103.04 C469.765333,103.04 476.461333,101.841333 481.504,99.444 C486.546667,97.0466667 490.246,93.3886667 492.602,88.47 C494.958,83.5513333 496.218667,77.1653333 496.384,69.312 C496.466667,66.832 496.508,63.5666667 496.508,59.516 L496.508,58.9146 C496.503763,55.145 496.462533,52.1214667 496.384,49.844 C496.218667,38.6013333 493.366667,30.19 487.828,24.61 C482.289333,19.03 473.278667,16.24 460.796,16.24 L460.796,16.24 L432.772,16.24 C431.945333,16.24 431.284,16.5086667 430.788,17.046 C430.292,17.5833333 430.044,18.3066667 430.044,19.216 L430.044,19.216 L430.044,100.188 C430.044,101.014667 430.292,101.696667 430.788,102.234 C431.284,102.771333 431.945333,103.04 432.772,103.04 L432.772,103.04 L461.416,103.04 Z M460.796,92.748 L441.7,92.748 L441.7,26.408 L460.176,26.408 C468.773333,26.408 474.952667,28.33 478.714,32.174 C482.475333,36.018 484.438667,42.0733333 484.604,50.34 C484.769333,55.1346667 484.852,58.1933333 484.852,59.516 C484.852,60.756 484.769333,63.856 484.604,68.816 C484.438667,74.6853333 483.591333,79.3353333 482.062,82.766 C480.532667,86.1966667 478.052667,88.718 474.622,90.33 C471.191333,91.942 466.582667,92.748 460.796,92.748 L460.796,92.748 Z M546.356,104.28 C557.102667,104.28 565.39,101.448667 571.218,95.786 C577.046,90.1233333 580.125333,81.588 580.456,70.18 C580.621333,65.22 580.704,61.7066667 580.704,59.64 C580.704,57.4906667 580.621333,54.0186667 580.456,49.224 C580.125333,37.9813333 576.942667,29.4666667 570.908,23.68 C564.873333,17.8933333 556.689333,15 546.356,15 C536.022667,15 527.818,17.8933333 521.742,23.68 C515.666,29.4666667 512.462667,37.9813333 512.132,49.224 C512.056222,51.4215556 512.015176,54.5221296 512.008861,58.5257222 L512.008861,60.8026465 C512.015501,64.7898677 512.056522,67.9156522 512.132,70.18 C512.462667,81.588 515.562667,90.1233333 521.432,95.786 C527.301333,101.448667 535.609333,104.28 546.356,104.28 Z M546.356,93.988 C539.66,93.988 534.328,91.9833333 530.36,87.974 C526.392,83.9646667 524.284,77.8266667 524.036,69.56 C523.953333,67.08 523.912,63.7733333 523.912,59.64 L523.912,59.0439002 C523.91603,55.1111413 523.95727,52.0031746 524.036,49.72 C524.284,41.4533333 526.412667,35.2946667 530.422,31.244 C534.431333,27.1933333 539.742667,25.168 546.356,25.168 C552.969333,25.168 558.26,27.1933333 562.228,31.244 C566.196,35.2946667 568.345333,41.4533333 568.676,49.72 C568.841333,54.5146667 568.924,57.8213333 568.924,59.64 C568.924,61.2933333 568.841333,64.6 568.676,69.56 C568.345333,77.8266667 566.196,83.9646667 562.228,87.974 C558.26,91.9833333 552.969333,93.988 546.356,93.988 Z M607.488,103.04 C608.314667,103.04 608.996667,102.771333 609.534,102.234 C610.071333,101.696667 610.34,101.014667 610.34,100.188 L610.34,100.188 L610.34,37.94 L651.88,101.304 C652.458667,102.461333 653.450667,103.04 654.856,103.04 L654.856,103.04 L660.436,103.04 C661.262667,103.04 661.944667,102.750667 662.482,102.172 C663.019333,101.593333 663.288,100.890667 663.288,100.064 L663.288,100.064 L663.288,19.216 C663.288,18.3066667 663.019333,17.5833333 662.482,17.046 C661.944667,16.5086667 661.221333,16.24 660.312,16.24 L660.312,16.24 L654.732,16.24 C653.905333,16.24 653.223333,16.5086667 652.686,17.046 C652.148667,17.5833333 651.88,18.3066667 651.88,19.216 L651.88,19.216 L651.88,81.96 L610.34,17.976 C609.926667,17.48 609.513333,17.0666667 609.1,16.736 C608.686667,16.4053333 608.066667,16.24 607.24,16.24 L607.24,16.24 L601.784,16.24 C600.957333,16.24 600.296,16.5086667 599.8,17.046 C599.304,17.5833333 599.056,18.3066667 599.056,19.216 L599.056,19.216 L599.056,100.188 C599.056,101.014667 599.304,101.696667 599.8,102.234 C600.296,102.771333 600.957333,103.04 601.784,103.04 L601.784,103.04 L607.488,103.04 Z M716.36,104.28 C723.552,104.28 729.793333,102.895333 735.084,100.126 C740.374667,97.3566667 744.404667,93.43 747.174,88.346 C749.943333,83.262 751.328,77.372 751.328,70.676 L751.328,70.676 L751.328,58.896 C751.328,57.9866667 751.059333,57.2633333 750.522,56.726 C749.984667,56.1886667 749.261333,55.92 748.352,55.92 L748.352,55.92 L720.576,55.92 C719.749333,55.92 719.067333,56.2093333 718.53,56.788 C717.992667,57.3666667 717.724,58.0693333 717.724,58.896 L717.724,58.896 L717.724,62.616 C717.724,63.4426667 717.992667,64.1453333 718.53,64.724 C719.067333,65.3026667 719.749333,65.592 720.576,65.592 L720.576,65.592 L739.548,65.592 L739.548,70.924 C739.548,78.612 737.44,84.378 733.224,88.222 C729.008,92.066 723.386667,93.988 716.36,93.988 C709.416,93.988 703.96,92.0866667 699.992,88.284 C696.024,84.4813333 693.916,78.5706667 693.668,70.552 C693.585333,68.072 693.544,64.3933333 693.544,59.516 C693.544,54.556 693.585333,50.8773333 693.668,48.48 C693.916,40.544 696.024,34.6746667 699.992,30.872 C703.96,27.0693333 709.416,25.168 716.36,25.168 C722.394667,25.168 727.189333,26.4906667 730.744,29.136 C734.298667,31.7813333 736.737333,35.0466667 738.06,38.932 C738.390667,39.8413333 738.742,40.4613333 739.114,40.792 C739.486,41.1226667 740.044,41.288 740.788,41.288 L740.788,41.288 L747.732,41.288 C748.393333,41.288 748.992667,41.0606667 749.53,40.606 C750.067333,40.1513333 750.336,39.5933333 750.336,38.932 L750.336,38.932 L750.336,38.684 C750.170667,35.5426667 748.806667,32.1326667 746.244,28.454 C743.681333,24.7753333 739.878667,21.6133333 734.836,18.968 C729.793333,16.3226667 723.634667,15 716.36,15 C705.613333,15 697.243333,17.9553333 691.25,23.866 C685.256667,29.7766667 682.094667,37.7746667 681.764,47.86 C681.681333,50.2573333 681.64,54.1426667 681.64,59.516 C681.64,64.8066667 681.681333,68.692 681.764,71.172 C682.177333,81.34 685.36,89.4 691.312,95.352 C697.264,101.304 705.613333,104.28 716.36,104.28 Z" id="DINGDONG" fill="#161616" fill-rule="nonzero"></path>
    </g>
</svg>